#N canvas 550 364 450 300 12;
#X obj 31 254 skg.buffer~ YTFLUTEA3X01.wav;
#X obj 267 149 vu 15 120 empty empty -1 -8 0 10 #404040 #000000 1 0
;
#X obj 62 217 dac~;
#X obj 114 178 env~;
#X obj 115 204 - 100;
#X msg 283 7 \; pd dsp 1 \;;
#X obj 321 50 loadbang;
#X obj 20 18 bng 15 250 50 0 empty empty empty 17 7 0 10 #fcfcfc #000000
#000000;
#X msg 39 96 0 YTFLUTEA3X01.wav 0 -1 3.77 0 0.5;
#X obj 54 141 samplorpd~ 1 32;
#X connect 3 0 4 0;
#X connect 4 0 1 0;
#X connect 6 0 5 0;
#X connect 6 0 8 0;
#X connect 7 0 9 0;
#X connect 8 0 9 0;
#X connect 9 0 2 0;
#X connect 9 0 3 0;
