#N canvas 120 166 915 421 12;
#X declare -path ./lib -path ./lib/snd;
#X msg 122 47 0 Piano_Stein_m_E3.aif 0 0 1.1036 0;
#X msg 123 15 0 Piano_Stein_m_E3.aif 0 0 1.1036 0.620001;
#X obj 178 233 dac~;
#X msg 443 11 adsr 2 1 100 1000;
#X msg 443 44 adsr 800 1 100 1;
#X obj 373 255 declare -path ./lib -path ./lib/snd;
#N canvas 596 197 574 865 sound-buffers 0;
#X obj 251 20 skg.buffer~ Piano_Stein_m_A0.aif;
#X obj 251 38 skg.buffer~ Piano_Stein_m_A1.aif;
#X obj 251 56 skg.buffer~ Piano_Stein_m_A4.aif;
#X obj 251 74 skg.buffer~ Piano_Stein_m_B2.aif;
#X obj 251 92 skg.buffer~ Piano_Stein_m_B3.aif;
#X obj 251 110 skg.buffer~ Piano_Stein_m_B6.aif;
#X obj 251 128 skg.buffer~ Piano_Stein_m_C#3.aif;
#X obj 251 146 skg.buffer~ Piano_Stein_m_C1.aif;
#X obj 251 164 skg.buffer~ Piano_Stein_m_C2.aif;
#X obj 251 182 skg.buffer~ Piano_Stein_m_C5.aif;
#X obj 251 200 skg.buffer~ Piano_Stein_m_C6.aif;
#X obj 251 218 skg.buffer~ Piano_Stein_m_C7.aif;
#X obj 251 236 skg.buffer~ Piano_Stein_m_D0.aif;
#X obj 251 254 skg.buffer~ Piano_Stein_m_D4.aif;
#X obj 251 272 skg.buffer~ Piano_Stein_m_E1.aif;
#X obj 251 290 skg.buffer~ Piano_Stein_m_E2.aif;
#X obj 251 308 skg.buffer~ Piano_Stein_m_E3.aif;
#X obj 251 326 skg.buffer~ Piano_Stein_m_E5.aif;
#X obj 251 344 skg.buffer~ Piano_Stein_m_E6.aif;
#X obj 251 362 skg.buffer~ Piano_Stein_m_F1.aif;
#X obj 251 380 skg.buffer~ Piano_Stein_m_F4.aif;
#X obj 251 398 skg.buffer~ Piano_Stein_m_G0.aif;
#X obj 251 416 skg.buffer~ Piano_Stein_m_G2.aif;
#X obj 251 434 skg.buffer~ Piano_Stein_m_G3.aif;
#X obj 251 452 skg.buffer~ Piano_Stein_m_G5.aif;
#X obj 251 470 skg.buffer~ Piano_Stein_m_G6.aif;
#X obj 251 488 skg.buffer~ Piano_Stein_p_A-1.aif;
#X obj 251 506 skg.buffer~ Piano_Stein_p_A0.aif;
#X obj 251 524 skg.buffer~ Piano_Stein_p_A1.aif;
#X obj 251 542 skg.buffer~ Piano_Stein_p_A4.aif;
#X obj 251 560 skg.buffer~ Piano_Stein_p_B2.aif;
#X obj 251 578 skg.buffer~ Piano_Stein_p_B3.aif;
#X obj 251 596 skg.buffer~ Piano_Stein_p_B6.aif;
#X obj 251 614 skg.buffer~ Piano_Stein_p_C#3.aif;
#X obj 251 632 skg.buffer~ Piano_Stein_p_C1.aif;
#X obj 251 650 skg.buffer~ Piano_Stein_p_C2.aif;
#X obj 251 668 skg.buffer~ Piano_Stein_p_C5_.aif;
#X obj 251 686 skg.buffer~ Piano_Stein_p_C7_.aif;
#X obj 251 704 skg.buffer~ Piano_Stein_p_D0.aif;
#X obj 251 722 skg.buffer~ Piano_Stein_p_D4.aif;
#X obj 251 740 skg.buffer~ Piano_Stein_p_E1.aif;
#X obj 251 758 skg.buffer~ Piano_Stein_p_E2.aif;
#X obj 251 776 skg.buffer~ Piano_Stein_p_E3.aif;
#X obj 251 794 skg.buffer~ Piano_Stein_p_E6_.aif;
#X obj 251 812 skg.buffer~ Piano_Stein_p_F1.aif;
#X obj 251 830 skg.buffer~ Piano_Stein_p_F4.aif;
#X obj 251 848 skg.buffer~ Piano_Stein_p_G0.aif;
#X obj 251 866 skg.buffer~ Piano_Stein_p_G2.aif;
#X obj 251 883 skg.buffer~ Piano_Stein_p_G3.aif;
#X obj 251 901 skg.buffer~ Piano_Stein_p_G6.aif;
#X obj 251 2 skg.buffer~ Piano_Stein_m_A-1.aif;
#X restore 527 107 pd sound-buffers;
#X obj 183 198 samplorpd~ 1 64;
#X connect 0 0 7 0;
#X connect 1 0 7 0;
#X connect 3 0 7 0;
#X connect 4 0 7 0;
#X connect 7 0 2 0;
#X connect 7 0 2 1;
