#N canvas 1345 23 335 222 10;
#X obj 90 96 sig~ 0;
#X msg 106 149 bang;
#X obj 90 177 print~;
#X floatatom 89 71 0 0 0 0 - - -;
#X msg 197 42 \; pd dsp 1;
#X obj 90 124 samplorpd~;
#X connect 0 0 5 0;
#X connect 1 0 2 0;
#X connect 3 0 0 0;
#X connect 5 0 2 0;
