#N canvas 677 85 863 512 12;
#X declare -path lib -path lib/snd;
#X obj 259 310 vu 15 120 empty empty -1 -8 0 10 -66577 -1 1 0;
#X obj 40 275 dac~;
#X obj 92 236 env~;
#X obj 93 262 - 100;
#X msg 420 7 \; pd dsp 1 \;;
#X obj 341 10 loadbang;
#X text 383 65 1;
#X obj 15 362 skg.buffer~ YTFLUTEA3X01.wav;
#X text 383 106 2;
#X msg 411 101 0 YTFLUTEA3X01.wav 0 0 0.943874 1.18671 0;
#X msg 413 140 0 YTFLUTEA3X01.wav 0 0 0.943874 0 0;
#X msg 405 188 stopall 200;
#X text 383 142 3;
#X text 383 183 4;
#X msg 409 62 adsr 10 80 100 2000 \, voice_stealing 20;
#X obj 16 389 declare -path lib -path lib/snd;
#X msg 36 144 maxvoices 32;
#X obj 32 199 samplorpd~ 2 32;
#X connect 2 0 3 0;
#X connect 3 0 0 0;
#X connect 5 0 4 0;
#X connect 9 0 17 0;
#X connect 10 0 17 0;
#X connect 11 0 17 0;
#X connect 14 0 17 0;
#X connect 16 0 17 0;
#X connect 17 0 1 0;
#X connect 17 0 2 0;
