#N canvas 779 258 738 415 12;
#X declare -path lib -path lib/snd;
#X obj 245 207 vu 15 120 empty empty -1 -8 0 10 #404040 #000000 1 0
;
#X obj 40 275 dac~;
#X obj 92 236 env~;
#X obj 93 262 - 100;
#X msg 420 7 \; pd dsp 1 \;;
#X obj 341 10 loadbang;
#X obj 32 199 samplorpd~ 1 32;
#X text 383 65 1;
#X msg 410 100 modwheel 1;
#X obj 31 21 t b b;
#X obj 37 62 del 200;
#X obj 412 143 bng 15 250 50 0 empty empty empty 17 7 0 10 #fcfcfc
#000000 #000000;
#X msg 413 184 modwheel 0.5;
#X text 383 106 2;
#X text 386 183 4;
#X obj 415 225 bng 15 250 50 0 empty empty empty 17 7 0 10 #fcfcfc
#000000 #000000;
#X text 358 142 3 ok;
#X text 337 224 5 pas ok;
#X obj 16 389 declare -path lib -path lib/snd;
#X obj 15 362 skg.buffer~ YTFLUTEA3X01.wav;
#X msg 409 62 adsr 100 80 100 1000 \, voice_stealing 20;
#X msg 25 98 0 YTFLUTEA3X01.wav 0 1200 1 1;
#X msg 35 137 0 YTFLUTEA3X01.wav 0 1200 1 0;
#X connect 2 0 3 0;
#X connect 3 0 0 0;
#X connect 5 0 4 0;
#X connect 6 0 1 0;
#X connect 6 0 2 0;
#X connect 8 0 6 0;
#X connect 9 0 21 0;
#X connect 9 1 10 0;
#X connect 10 0 22 0;
#X connect 11 0 9 0;
#X connect 12 0 6 0;
#X connect 15 0 9 0;
#X connect 20 0 6 0;
#X connect 21 0 6 0;
#X connect 22 0 6 0;
