#N canvas 345 557 738 415 12;
#X declare -path lib -path lib/snd;
#X obj 267 149 vu 15 120 empty empty -1 -8 0 10 #404040 #000000 1 0
;
#X obj 62 217 dac~;
#X obj 114 178 env~;
#X obj 115 204 - 100;
#X msg 420 7 \; pd dsp 1 \;;
#X obj 341 10 loadbang;
#X obj 449 250 bng 15 250 50 0 empty empty empty 17 7 0 10 #fcfcfc
#000000 #000000;
#X obj 54 141 samplorpd~ 1 32;
#X msg 408 104 buffer_loop YTFLUTEA3X01.wav 161949 245499;
#X msg 410 162 get_buffer_loop YTFLUTEA3X01.wav;
#X msg 406 65 adsr 10 80 100 100 \, voice_stealing 20;
#X text 383 65 1;
#X text 387 102 2;
#X text 386 143 3 (optional);
#X text 395 203 4;
#X text 397 244 5 bug;
#X obj 151 354 declare -path lib -path lib/snd;
#X obj 37 304 skg.buffer~ YTFLUTEA3X01.wav;
#X msg 101 28 0 YTFLUTEA3X01.wav 0 1000 1 1;
#X msg 52 59 0 YTFLUTEA3X01.wav 0 -1 1 1;
#X msg 67 91 0 YTFLUTEA3X01.wav 0 -1 1 0;
#X msg 286 63 stopall 100;
#X msg 414 282 buffer_loop YTFLUTEA3X01.wav 1000 2000;
#X msg 412 203 loop_xfade 2222;
#X connect 2 0 3 0;
#X connect 3 0 0 0;
#X connect 5 0 4 0;
#X connect 7 0 1 0;
#X connect 7 0 2 0;
#X connect 8 0 7 0;
#X connect 9 0 7 0;
#X connect 10 0 7 0;
#X connect 18 0 7 0;
#X connect 19 0 7 0;
#X connect 20 0 7 0;
#X connect 21 0 7 0;
#X connect 22 0 7 0;
#X connect 23 0 7 0;
