#N canvas -1412 173 490 718 10;
#X declare -path ./lib -path ./lib/snd;
#X obj 101 578 scale 0 127 0 1;
#X obj 101 428 vsl 16 136 0 127 0 0 empty empty empty 0 -9 0 10 #fcfcfc #000000 #000000 0 1;
#X obj 235 659 dac~;
#X obj 274 627 *~ 1;
#X obj 235 627 *~ 1;
#N canvas -614 155 566 926 Buffers 1;
#X obj 332 1874 skg.buffer~ "Log Drum 1.wav";
#X obj 332 1890 skg.buffer~ "Log Drum 2.wav";
#X obj 332 1906 skg.buffer~ "Log Drum 3.wav";
#X obj 332 1922 skg.buffer~ "Log Drum 4.wav";
#X obj 332 1938 skg.buffer~ "PolyBlock 1.wav";
#X obj 332 1954 skg.buffer~ "PolyBlock 2.wav";
#X obj 332 1970 skg.buffer~ "PolyBlock 3 .wav";
#X obj 332 1986 skg.buffer~ "PolyBlock 4.wav";
#X obj 332 2002 skg.buffer~ "PolyBlock 5.wav";
#X obj 332 2018 skg.buffer~ Caxixi-double_aT-fast.wav;
#X obj 332 2034 skg.buffer~ Caxixi-high_aT.wav;
#X obj 332 2050 skg.buffer~ Caxixi-low_aT-fast.wav;
#X obj 332 2066 skg.buffer~ "06 mokubio rainer.wav";
#X obj 332 2082 skg.buffer~ "Enclume Grave.aif";
#X obj 332 2098 skg.buffer~ "Enclume Aigue v2.aif";
#X obj 332 2114 skg.buffer~ "Enclume Moyenne.aif";
#X obj 332 2130 skg.buffer~ boobams_DPA4006-C4-f.aif;
#X obj 332 2146 skg.buffer~ boobams_DPA4006-C\$4-f.aif;
#X obj 332 2162 skg.buffer~ boobams_DPA4006-D4-f.aif;
#X obj 332 2178 skg.buffer~ boobams_DPA4006-D\$4-f.aif;
#X obj 332 2194 skg.buffer~ boobams_DPA4006-E4-f.aif;
#X obj 332 2210 skg.buffer~ boobams_DPA4006-F4-f.aif;
#X obj 332 2226 skg.buffer~ boobams_DPA4006-F\$4-f.aif;
#X obj 332 2242 skg.buffer~ boobams_DPA4006-G4-f.aif;
#X obj 332 2258 skg.buffer~ boobams_DPA4006-G\$4-f.aif;
#X obj 332 2274 skg.buffer~ boobams_DPA4006-A4-f.aif;
#X obj 332 2290 skg.buffer~ boobams_DPA4006-A\$4-f.aif;
#X obj 332 2306 skg.buffer~ boobams_DPA4006-B4-f.aif;
#X obj 332 2322 skg.buffer~ boobams_DPA4006-C4-p.aif;
#X obj 332 2338 skg.buffer~ boobams_DPA4006-C\$4-p.aif;
#X obj 332 2354 skg.buffer~ boobams_DPA4006-D4-p.aif;
#X obj 332 2370 skg.buffer~ boobams_DPA4006-D\$4-p.aif;
#X obj 332 2386 skg.buffer~ boobams_DPA4006-E4-p.aif;
#X obj 332 2402 skg.buffer~ boobams_DPA4006-F4-p.aif;
#X obj 332 2418 skg.buffer~ boobams_DPA4006-F\$4-p.aif;
#X obj 332 2434 skg.buffer~ boobams_DPA4006-G4-p.aif;
#X obj 332 2450 skg.buffer~ boobams_DPA4006-G\$4-p.aif;
#X obj 332 2466 skg.buffer~ boobams_DPA4006-A4-p.aif;
#X obj 332 2482 skg.buffer~ boobams_DPA4006-A\$4-p.aif;
#X obj 332 2498 skg.buffer~ boobams_DPA4006-B4-p.aif;
#X obj 332 2514 skg.buffer~ crasher1.aiff;
#X obj 332 2530 skg.buffer~ crasher2.aiff;
#X obj 332 2546 skg.buffer~ crasher3.aiff;
#X obj 332 2562 skg.buffer~ crasher4.aiff;
#X obj 3 2 skg.buffer~ Caxixi-double_aT-fast.wav;
#X obj 3 18 skg.buffer~ Caxixi-high_aT.wav;
#X obj 3 34 skg.buffer~ Caxixi-low_aT-fast.wav;
#X obj 3 50 skg.buffer~ Log1_hard_ES_f1_A\$2.wav;
#X obj 3 66 skg.buffer~ Log1_hard_ES_f1_D\$3.wav;
#X obj 3 82 skg.buffer~ Log1_hard_ES_f1_F\$3.wav;
#X obj 3 98 skg.buffer~ Log1_hard_ES_f1_G\$2.wav;
#X obj 3 114 skg.buffer~ Woodblock-Do3.aif;
#X obj 3 130 skg.buffer~ Woodblock-Do4.aif;
#X obj 3 146 skg.buffer~ Woodblock-Do5.aif;
#X obj 3 162 skg.buffer~ Woodblock-Fa3.aif;
#X obj 3 178 skg.buffer~ Woodblock-Fa4.aif;
#X obj 3 194 skg.buffer~ Woodblock-Fa5.aif;
#X obj 3 210 skg.buffer~ Woodblock-La2.aif;
#X obj 3 226 skg.buffer~ Woodblock-La3.aif;
#X obj 3 242 skg.buffer~ Woodblock-La4.aif;
#X obj 3 258 skg.buffer~ Woodblock-Mi3.aif;
#X obj 3 274 skg.buffer~ Woodblock-Mi4.aif;
#X obj 3 290 skg.buffer~ Woodblock-Mi5.aif;
#X obj 3 306 skg.buffer~ Woodblock-Ré3.aif;
#X obj 3 322 skg.buffer~ Woodblock-Ré4.aif;
#X obj 3 338 skg.buffer~ Woodblock-Ré5.aif;
#X obj 3 354 skg.buffer~ Woodblock-Si2.aif;
#X obj 3 370 skg.buffer~ Woodblock-Si4.aif;
#X obj 3 386 skg.buffer~ Woodblock-Sib3.aif;
#X obj 3 402 skg.buffer~ Woodblock-Sol2.aif;
#X obj 3 418 skg.buffer~ Woodblock-Sol3.aif;
#X obj 3 434 skg.buffer~ Woodblock-Sol4.aif;
#X obj 3 450 skg.buffer~ BongoHi-1coup.aif;
#X obj 3 466 skg.buffer~ BongoHi2-1coup.aif;
#X obj 3 482 skg.buffer~ Boobam-A4-1coup.aif;
#X obj 3 498 skg.buffer~ Boobam-Ab4-1coup.aif;
#X obj 3 514 skg.buffer~ Boobam-B3-1coup.aif;
#X obj 3 530 skg.buffer~ Boobam-B4-1coup.aif;
#X obj 3 546 skg.buffer~ Boobam-Bb4-1coup.aif;
#X obj 3 562 skg.buffer~ Boobam-C4-1coup.aif;
#X obj 3 578 skg.buffer~ Boobam-D4-1coup.aif;
#X obj 3 594 skg.buffer~ Boobam-Db4-1coup.aif;
#X obj 3 610 skg.buffer~ Boobam-E4-1coup.aif;
#X obj 3 626 skg.buffer~ Boobam-Eb4-1coup.aif;
#X obj 3 642 skg.buffer~ Boobam-F4-1coup.aif;
#X obj 3 658 skg.buffer~ Boobam-Fd4-1coup.aif;
#X obj 3 674 skg.buffer~ Boobam-G4-1coup.aif;
#X obj 3 690 skg.buffer~ PLGL_p_C3.wav;
#X obj 3 706 skg.buffer~ PLGL_p_E3.wav;
#X obj 3 722 skg.buffer~ PLGL_p_C3.wav;
#X obj 3 738 skg.buffer~ PLGL_p_E3.wav;
#X obj 3 754 skg.buffer~ fj_gongs_re3_1.aif;
#X obj 7 769 skg.buffer~ PetitGong-Do4.aif.aif;
#X obj 3 786 skg.buffer~ PetitGong-Do5.aif;
#X obj 3 802 skg.buffer~ PetitGong-Dod4.aif;
#X obj 3 818 skg.buffer~ PetitGong-Fa4.aif;
#X obj 3 834 skg.buffer~ PetitGong-Fad4.aif;
#X obj 3 850 skg.buffer~ PetitGong-La4.aif;
#X obj 3 866 skg.buffer~ PetitGong-Mi4.aif;
#X obj 3 882 skg.buffer~ PetitGong-Ré4.aif;
#X obj 3 898 skg.buffer~ PetitGong-Réd4.aif;
#X obj 3 914 skg.buffer~ PetitGong-Si4.aif;
#X obj 3 930 skg.buffer~ PetitGong-Sol4.aif;
#X obj 3 946 skg.buffer~ PetitGong-Sold4.aif;
#X obj 3 962 skg.buffer~ fj_gong_thai_fa_corps.aif;
#X obj 3 978 skg.buffer~ fj_gong_thai_fa_mamelon.aif;
#X obj 3 994 skg.buffer~ fj_gong_thai_si_corps.aif;
#X obj 3 1010 skg.buffer~ fj_gong_thai_si_mamelon.aif;
#X obj 3 1026 skg.buffer~ fj_tamtam.aif;
#X obj 3 1042 skg.buffer~ HBE_22Z-Ri_Pa_f_Do_mu-lo1.wav;
#X obj 3 1058 skg.buffer~ HBE_22Z-Ri_Pa_ff_Do_mu-lo2.wav;
#X obj 3 1074 skg.buffer~ HBE_22Z-Ri_Pa_p_Do_mu-lo1.wav;
#X obj 3 1090 skg.buffer~ Tam_Me_f_100.wav;
#X obj 3 1106 skg.buffer~ Tam_Me_f_130.wav;
#X obj 3 1122 skg.buffer~ Tam_Me_f_52.wav;
#X obj 3 1138 skg.buffer~ Tam_Me_p_100.wav;
#X obj 3 1154 skg.buffer~ Tam_Me_p_130.wav;
#X obj 3 1170 skg.buffer~ Tam_Me_p_52.wav;
#X obj 3 1186 skg.buffer~ Tmtm_f_1.wav;
#X obj 3 1202 skg.buffer~ Tmtm_ff_1.wav;
#X obj 3 1218 skg.buffer~ Tmtm_mf_1.wav;
#X obj 3 1234 skg.buffer~ Tmtm_mp_1.wav;
#X obj 3 1250 skg.buffer~ fj_metal_chimes.aif;
#X obj 3 1266 skg.buffer~ Vibraslap_02.aif;
#X obj 3 1282 skg.buffer~ GTr1_ES_f1.wav;
#X obj 3 1298 skg.buffer~ GTr1_ES_mf2.wav;
#X obj 3 1314 skg.buffer~ GTr1_ES_p1.wav;
#X obj 3 1330 skg.buffer~ Tom-10p-1coup.aif;
#X obj 3 1346 skg.buffer~ Tom-14p-1coup.aif;
#X obj 3 1362 skg.buffer~ Tom-16p-1coup.aif;
#X obj 3 1378 skg.buffer~ Tom-18p-1coup.aif;
#X obj 3 1394 skg.buffer~ fj_tubes_a_main_2.aif;
#X obj 3 1410 skg.buffer~ fj_tubes_a_main_3.aif;
#X obj 3 1426 skg.buffer~ fj_tubes_do3.aiff;
#X obj 3 1442 skg.buffer~ fj_tubes_do4+.aif;
#X obj 3 1458 skg.buffer~ fj_tubes_do4.aif;
#X obj 3 1474 skg.buffer~ fj_tubes_re4.aif;
#X obj 3 1538 skg.buffer~ Vib_ES_Me_sp-0_f1_A\$3.wav;
#X obj 3 1554 skg.buffer~ Vib_ES_Me_sp-0_f1_A\$4.wav;
#X obj 3 1570 skg.buffer~ Vib_ES_Me_sp-0_f1_A\$5.wav;
#X obj 3 1586 skg.buffer~ Vib_ES_Me_sp-0_f1_A3.wav;
#X obj 3 1602 skg.buffer~ Vib_ES_Me_sp-0_f1_A4.wav;
#X obj 3 1618 skg.buffer~ Vib_ES_Me_sp-0_f1_A5.wav;
#X obj 3 1634 skg.buffer~ Vib_ES_Me_sp-0_f1_B3.wav;
#X obj 3 1650 skg.buffer~ Vib_ES_Me_sp-0_f1_B4.wav;
#X obj 3 1666 skg.buffer~ Vib_ES_Me_sp-0_f1_B5.wav;
#X obj 3 1682 skg.buffer~ Vib_ES_Me_sp-0_f1_C\$4.wav;
#X obj 3 1698 skg.buffer~ Vib_ES_Me_sp-0_f1_C\$5.wav;
#X obj 3 1714 skg.buffer~ Vib_ES_Me_sp-0_f1_C\$6.wav;
#X obj 3 1730 skg.buffer~ Vib_ES_Me_sp-0_f1_C4.wav;
#X obj 3 1746 skg.buffer~ Vib_ES_Me_sp-0_f1_C5.wav;
#X obj 3 1762 skg.buffer~ Vib_ES_Me_sp-0_f1_C6.wav;
#X obj 3 1778 skg.buffer~ Vib_ES_Me_sp-0_f1_D\$4.wav;
#X obj 3 1794 skg.buffer~ Vib_ES_Me_sp-0_f1_D\$5.wav;
#X obj 3 1810 skg.buffer~ Vib_ES_Me_sp-0_f1_D\$6.wav;
#X obj 3 1826 skg.buffer~ Vib_ES_Me_sp-0_f1_D4.wav;
#X obj 3 1842 skg.buffer~ Vib_ES_Me_sp-0_f1_D5.wav;
#X obj 3 1858 skg.buffer~ Vib_ES_Me_sp-0_f1_D6.wav;
#X obj 3 1874 skg.buffer~ Vib_ES_Me_sp-0_f1_E4.wav;
#X obj 3 1890 skg.buffer~ Vib_ES_Me_sp-0_f1_E5.wav;
#X obj 3 1906 skg.buffer~ Vib_ES_Me_sp-0_f1_E6.wav;
#X obj 3 1922 skg.buffer~ Vib_ES_Me_sp-0_f1_F\$3.wav;
#X obj 3 1938 skg.buffer~ Vib_ES_Me_sp-0_f1_F\$4.wav;
#X obj 3 1954 skg.buffer~ Vib_ES_Me_sp-0_f1_F\$5.wav;
#X obj 3 1970 skg.buffer~ Vib_ES_Me_sp-0_f1_F3.wav;
#X obj 3 1986 skg.buffer~ Vib_ES_Me_sp-0_f1_F4.wav;
#X obj 3 2002 skg.buffer~ Vib_ES_Me_sp-0_f1_F5.wav;
#X obj 3 2018 skg.buffer~ Vib_ES_Me_sp-0_f1_F6.wav;
#X obj 3 2034 skg.buffer~ Vib_ES_Me_sp-0_f1_G\$3.wav;
#X obj 3 2050 skg.buffer~ Vib_ES_Me_sp-0_f1_G\$4.wav;
#X obj 3 2066 skg.buffer~ Vib_ES_Me_sp-0_f1_G\$5.wav;
#X obj 3 2082 skg.buffer~ Vib_ES_Me_sp-0_f1_G3.wav;
#X obj 3 2098 skg.buffer~ Vib_ES_Me_sp-0_f1_G4.wav;
#X obj 3 2114 skg.buffer~ Vib_ES_Me_sp-0_f1_G5.wav;
#X obj 3 2130 skg.buffer~ Vib_ES_Me_sp-0_mf1_A\$3.wav;
#X obj 3 2146 skg.buffer~ Vib_ES_Me_sp-0_mf1_A\$4.wav;
#X obj 3 2162 skg.buffer~ Vib_ES_Me_sp-0_mf1_A\$5.wav;
#X obj 3 2178 skg.buffer~ Vib_ES_Me_sp-0_mf1_A3.wav;
#X obj 3 2194 skg.buffer~ Vib_ES_Me_sp-0_mf1_A4.wav;
#X obj 3 2210 skg.buffer~ Vib_ES_Me_sp-0_mf1_A5.wav;
#X obj 3 2226 skg.buffer~ Vib_ES_Me_sp-0_mf1_B3.wav;
#X obj 3 2242 skg.buffer~ Vib_ES_Me_sp-0_mf1_B4.wav;
#X obj 3 2258 skg.buffer~ Vib_ES_Me_sp-0_mf1_B5.wav;
#X obj 3 2274 skg.buffer~ Vib_ES_Me_sp-0_mf1_C\$4.wav;
#X obj 3 2290 skg.buffer~ Vib_ES_Me_sp-0_mf1_C\$5.wav;
#X obj 3 2306 skg.buffer~ Vib_ES_Me_sp-0_mf1_C\$6.wav;
#X obj 3 2322 skg.buffer~ Vib_ES_Me_sp-0_mf1_C4.wav;
#X obj 3 2338 skg.buffer~ Vib_ES_Me_sp-0_mf1_C5.wav;
#X obj 3 2354 skg.buffer~ Vib_ES_Me_sp-0_mf1_C6.wav;
#X obj 3 2370 skg.buffer~ Vib_ES_Me_sp-0_mf1_D\$4.wav;
#X obj 3 2386 skg.buffer~ Vib_ES_Me_sp-0_mf1_D\$5.wav;
#X obj 3 2402 skg.buffer~ Vib_ES_Me_sp-0_mf1_D\$6.wav;
#X obj 3 2418 skg.buffer~ Vib_ES_Me_sp-0_mf1_D4.wav;
#X obj 3 2434 skg.buffer~ Vib_ES_Me_sp-0_mf1_D5.wav;
#X obj 3 2450 skg.buffer~ Vib_ES_Me_sp-0_mf1_D6.wav;
#X obj 3 2466 skg.buffer~ Vib_ES_Me_sp-0_mf1_E4.wav;
#X obj 3 2482 skg.buffer~ Vib_ES_Me_sp-0_mf1_E5.wav;
#X obj 3 2498 skg.buffer~ Vib_ES_Me_sp-0_mf1_E6.wav;
#X obj 3 2514 skg.buffer~ Vib_ES_Me_sp-0_mf1_F\$3.wav;
#X obj 3 2530 skg.buffer~ Vib_ES_Me_sp-0_mf1_F\$4.wav;
#X obj 3 2546 skg.buffer~ Vib_ES_Me_sp-0_mf1_F\$5.wav;
#X obj 3 2562 skg.buffer~ Vib_ES_Me_sp-0_mf1_F3.wav;
#X obj 3 2578 skg.buffer~ Vib_ES_Me_sp-0_mf1_F4.wav;
#X obj 3 2594 skg.buffer~ Vib_ES_Me_sp-0_mf1_F5.wav;
#X obj 3 2610 skg.buffer~ Vib_ES_Me_sp-0_mf1_F6.wav;
#X obj 3 2626 skg.buffer~ Vib_ES_Me_sp-0_mf1_G\$3.wav;
#X obj 3 2642 skg.buffer~ Vib_ES_Me_sp-0_mf1_G\$4.wav;
#X obj 3 2658 skg.buffer~ Vib_ES_Me_sp-0_mf1_G\$5.wav;
#X obj 3 2674 skg.buffer~ Vib_ES_Me_sp-0_mf1_G3.wav;
#X obj 3 2690 skg.buffer~ Vib_ES_Me_sp-0_mf1_G4.wav;
#X obj 3 2706 skg.buffer~ Vib_ES_Me_sp-0_mf1_G5.wav;
#X obj 3 2722 skg.buffer~ Vib_ES_Me_sp-0_p1_A\$3.wav;
#X obj 3 2738 skg.buffer~ Vib_ES_Me_sp-0_p1_A\$4.wav;
#X obj 3 2754 skg.buffer~ Vib_ES_Me_sp-0_p1_A\$5.wav;
#X obj 3 2770 skg.buffer~ Vib_ES_Me_sp-0_p1_A3.wav;
#X obj 3 2786 skg.buffer~ Vib_ES_Me_sp-0_p1_A4.wav;
#X obj 3 2802 skg.buffer~ Vib_ES_Me_sp-0_p1_A5.wav;
#X obj 3 2818 skg.buffer~ Vib_ES_Me_sp-0_p1_B3.wav;
#X obj 3 2834 skg.buffer~ Vib_ES_Me_sp-0_p1_B4.wav;
#X obj 3 2850 skg.buffer~ Vib_ES_Me_sp-0_p1_B5.wav;
#X obj 3 2866 skg.buffer~ Vib_ES_Me_sp-0_p1_C\$4.wav;
#X obj 3 2882 skg.buffer~ Vib_ES_Me_sp-0_p1_C\$5.wav;
#X obj 3 2898 skg.buffer~ Vib_ES_Me_sp-0_p1_C\$6.wav;
#X obj 3 2914 skg.buffer~ Vib_ES_Me_sp-0_p1_C4.wav;
#X obj 3 2930 skg.buffer~ Vib_ES_Me_sp-0_p1_C5.wav;
#X obj 3 2946 skg.buffer~ Vib_ES_Me_sp-0_p1_C6.wav;
#X obj 3 2962 skg.buffer~ Vib_ES_Me_sp-0_p1_D\$4.wav;
#X obj 3 2978 skg.buffer~ Vib_ES_Me_sp-0_p1_D\$5.wav;
#X obj 3 2994 skg.buffer~ Vib_ES_Me_sp-0_p1_D\$6.wav;
#X obj 3 3010 skg.buffer~ Vib_ES_Me_sp-0_p1_D4.wav;
#X obj 3 3026 skg.buffer~ Vib_ES_Me_sp-0_p1_D5.wav;
#X obj 3 3042 skg.buffer~ Vib_ES_Me_sp-0_p1_D6.wav;
#X obj 3 3058 skg.buffer~ Vib_ES_Me_sp-0_p1_E4.wav;
#X obj 3 3074 skg.buffer~ Vib_ES_Me_sp-0_p1_E5.wav;
#X obj 3 3090 skg.buffer~ Vib_ES_Me_sp-0_p1_E6.wav;
#X obj 3 3106 skg.buffer~ Vib_ES_Me_sp-0_p1_F\$3.wav;
#X obj 3 3122 skg.buffer~ Vib_ES_Me_sp-0_p1_F\$4.wav;
#X obj 3 3138 skg.buffer~ Vib_ES_Me_sp-0_p1_F\$5.wav;
#X obj 3 3154 skg.buffer~ Vib_ES_Me_sp-0_p1_F3.wav;
#X obj 3 3170 skg.buffer~ Vib_ES_Me_sp-0_p1_F4.wav;
#X obj 3 3186 skg.buffer~ Vib_ES_Me_sp-0_p1_F5.wav;
#X obj 3 3202 skg.buffer~ Vib_ES_Me_sp-0_p1_F6.wav;
#X obj 3 3218 skg.buffer~ Vib_ES_Me_sp-0_p1_G\$3.wav;
#X obj 3 3234 skg.buffer~ Vib_ES_Me_sp-0_p1_G\$4.wav;
#X obj 3 3250 skg.buffer~ Vib_ES_Me_sp-0_p1_G\$5.wav;
#X obj 3 3266 skg.buffer~ Vib_ES_Me_sp-0_p1_G3.wav;
#X obj 3 3282 skg.buffer~ Vib_ES_Me_sp-0_p1_G4.wav;
#X obj 3 3298 skg.buffer~ Vib_ES_Me_sp-0_p1_G5.wav;
#X restore 262 26 pd Buffers;
#X text 320 464 print messages;
#X text 170 179 load preset;
#X obj 1 2 bogus;
#X text 65 2 samplor~ simple sampler;
#X obj 280 88 tgl 15 0 empty empty empty 17 7 0 10 #fcfcfc #000000 #000000 0 1;
#X obj 280 120 metro 55;
#X obj 280 170 + 82;
#X obj 280 143 random 7;
#X msg 248 528 stopall 200;
#X obj 313 371 loadmess 1;
#X obj 325 520 loadbang;
#X msg 325 549 adsr 4 1 100 100;
#N canvas 134 172 273 331 undefined 0;
#X obj 140 104 - 1;
#X obj 140 154 + 1;
#X obj 50 122 prepend set;
#X obj 50 40 inlet;
#X obj 143 40 inlet;
#X obj 140 206 outlet;
#X obj 143 206 outlet;
#X connect 0 0 5 0;
#X connect 1 0 6 0;
#X connect 2 0 0 0;
#X connect 3 0 2 0;
#X connect 4 0 1 0;
#X restore 400 335 pd undefined;
#X text 344 408 loop;
#X text 336 301 sustain;
#X obj 256 469 tgl 15 0 empty empty empty 17 7 0 10 #fcfcfc #000000 #000000 0 1;
#X obj 283 469 gate;
#X obj 283 496 print;
#X obj 403 367 bogus;
#X obj 301 301 tgl 15 0 empty empty empty 17 7 0 10 #fcfcfc #000000 #000000 0 1;
#X obj 235 330 sustain;
#X obj 313 400 tgl 15 0 empty empty empty 17 7 0 10 #fcfcfc #000000 #000000 0 1;
#N canvas -1232 415 640 480 loop 0;
#X obj 110 3 inlet;
#X obj 110 36 tgl 15 0 empty empty empty 17 7 0 10 #fcfcfc #000000 #000000 0 1;
#X obj 110 64 * -1;
#X obj 50 140 pack 0 s 0 0 0 0 0.5;
#X obj 50 102 unpack 0 s 0 0 0 0 0;
#X obj 50 40 inlet;
#X obj 50 192 outlet;
#X connect 0 0 1 0;
#X connect 1 0 2 0;
#X connect 2 0 3 3;
#X connect 3 0 6 0;
#X connect 4 0 3 0;
#X connect 4 1 3 1;
#X connect 4 2 3 2;
#X connect 4 4 3 4;
#X connect 4 5 3 5;
#X connect 5 0 4 0;
#X restore 235 431 pd loop;
#X obj 401 284 pgmin;
#X floatatom 401 311 8 0 0 0 - - - 0;
#X obj 280 251 makenote 80 1000;
#X obj 235 252 notein;
#X text 401 267 CHANNEL;
#X text 72 60 lemouton@ircam.fr 2008-2012;
#X obj 92 311 prepend buffer_loop;
#X msg -12 138 renumber 0;
#X obj -12 246 t l clear;
#X obj -12 277 zl iter 1;
#X obj -12 307 prepend append;
#X obj -12 217 route pgm_menu buffer_loop;
#X obj 235 588 samplorpd~ -2 64;
#X obj 235 367 samplorkg;
#X floatatom 279 202 5 0 0 0 - - - 0;
#X obj 14 657 declare -path ./lib -path ./lib/snd;
#X obj 1 184 coll ombre-bank;
#C restore;
#X floatatom 52 96 5 0 0 0 - - - 0;
#X msg 10 73 dump;
#X msg 188 148 dump;
#X msg 224 124 clear;
#X obj 151 178 bng 16 250 50 0 empty empty empty 0 -8 0 10 #fcfcfc #000000 #000000;
#X obj 150 101 trigger b b b;
#X obj 149 79 loadbang;
#X connect 0 0 4 1;
#X connect 0 0 3 1;
#X connect 1 0 0 0;
#X connect 3 0 2 1;
#X connect 4 0 2 0;
#X connect 10 0 11 0;
#X connect 11 0 13 0;
#X connect 12 0 43 0;
#X connect 13 0 12 0;
#X connect 14 0 41 0;
#X connect 15 0 27 0;
#X connect 16 0 17 0;
#X connect 17 0 41 0;
#X connect 18 0 24 0;
#X connect 18 1 30 0;
#X connect 21 0 22 0;
#X connect 22 0 23 0;
#X connect 24 0 18 1;
#X connect 25 0 26 2;
#X connect 26 0 42 0;
#X connect 26 1 42 1;
#X connect 27 0 28 1;
#X connect 28 0 22 1;
#X connect 28 0 41 0;
#X connect 29 0 30 0;
#X connect 30 0 18 0;
#X connect 30 0 42 2;
#X connect 31 0 26 0;
#X connect 31 1 26 1;
#X connect 32 0 26 0;
#X connect 32 1 26 1;
#X connect 35 0 41 0;
#X connect 36 0 45 0;
#X connect 37 0 38 0;
#X connect 37 1 24 0;
#X connect 38 0 39 0;
#X connect 39 0 24 0;
#X connect 40 0 37 0;
#X connect 40 1 35 0;
#X connect 40 2 42 0;
#X connect 41 0 4 0;
#X connect 41 1 3 0;
#X connect 42 0 28 0;
#X connect 43 0 31 0;
#X connect 45 0 40 0;
#X connect 46 0 45 0;
#X connect 47 0 45 0;
#X connect 48 0 45 0;
#X connect 49 0 42 0;
#X connect 50 0 42 0;
#X connect 51 0 50 0;
#X connect 51 1 48 0;
#X connect 51 2 49 0;
#X connect 52 0 51 0;
